<svg viewBox="0 0 600 600" xmlns="http://www.w3.org/2000/svg">
  <defs>
    <linearGradient id="bgGradient" x1="50%" y1="0%" x2="50%" y2="100%">
      <stop offset="0%" stop-color="#030303" />
      <stop offset="50%" stop-color="#0d0d0d" />
      <stop offset="100%" stop-color="#1a1a1a" />
    </linearGradient>
    <radialGradient id="glow" cx="50%" cy="30%" r="60%">
      <stop offset="0%" stop-color="#ffffff" stop-opacity="0.25" />
      <stop offset="100%" stop-color="#ffffff" stop-opacity="0" />
    </radialGradient>
    <linearGradient id="dishGradient" x1="0%" y1="0%" x2="100%" y2="100%">
      <stop offset="0%" stop-color="#fdfdfd" />
      <stop offset="60%" stop-color="#ededed" />
      <stop offset="100%" stop-color="#d9d9d9" />
    </linearGradient>
    <linearGradient id="dishEdge" x1="0%" y1="0%" x2="0%" y2="100%">
      <stop offset="0%" stop-color="#f5f5f5" />
      <stop offset="100%" stop-color="#bfbfbf" />
    </linearGradient>
    <linearGradient id="baseGradient" x1="0%" y1="0%" x2="100%" y2="100%">
      <stop offset="0%" stop-color="#3b3b3b" />
      <stop offset="100%" stop-color="#050505" />
    </linearGradient>
    <linearGradient id="baseLipGradient" x1="0%" y1="0%" x2="100%" y2="100%">
      <stop offset="0%" stop-color="#232323" />
      <stop offset="100%" stop-color="#050505" />
    </linearGradient>
    <linearGradient id="roofGradient" x1="50%" y1="0%" x2="50%" y2="100%">
      <stop offset="0%" stop-color="#2b2b2b" />
      <stop offset="100%" stop-color="#050505" />
    </linearGradient>
    <filter id="softShadow" x="-50%" y="-50%" width="200%" height="200%">
      <feDropShadow dx="0" dy="20" stdDeviation="20" flood-color="#000000" flood-opacity="0.45" />
    </filter>
  </defs>

  <rect width="600" height="600" fill="url(#bgGradient)" />
  <ellipse cx="300" cy="200" rx="260" ry="180" fill="url(#glow)" />

  <!-- Vehicle roof -->
  <path
    d="M80 430 C130 380 470 380 520 430 L520 530 C520 555 500 575 475 575 L125 575 C100 575 80 555 80 530 Z"
    fill="url(#roofGradient)"
  />
  <path
    d="M95 443 C140 405 460 405 505 443 L505 520 C505 535 492 548 477 548 L123 548 C108 548 95 535 95 520 Z"
    fill="#0f0f0f"
  />

  <g filter="url(#softShadow)">
    <!-- Base lip -->
    <rect x="150" y="390" width="300" height="110" rx="26" fill="url(#baseLipGradient)" />
    <rect x="165" y="405" width="270" height="80" rx="20" fill="url(#baseGradient)" />
    <rect x="200" y="360" width="200" height="60" rx="18" fill="#101010" />
    <rect x="210" y="370" width="180" height="40" rx="12" fill="#090909" />

    <!-- Mount screws -->
    <circle cx="190" cy="450" r="6" fill="#1c1c1c" stroke="#5e5e5e" stroke-width="1" />
    <circle cx="410" cy="450" r="6" fill="#1c1c1c" stroke="#5e5e5e" stroke-width="1" />
    <circle cx="215" cy="418" r="5" fill="#1c1c1c" stroke="#5e5e5e" stroke-width="1" />
    <circle cx="385" cy="418" r="5" fill="#1c1c1c" stroke="#5e5e5e" stroke-width="1" />

    <!-- Dish support -->
    <rect x="238" y="310" width="124" height="60" rx="14" fill="#121212" />
    <rect x="250" y="320" width="100" height="40" rx="10" fill="#090909" />
  </g>

  <!-- Dish shadow on base -->
  <ellipse cx="300" cy="340" rx="145" ry="30" fill="#000000" opacity="0.35" />

  <!-- Dish -->
  <g transform="rotate(-6 300 250)">
    <rect
      x="170"
      y="170"
      width="260"
      height="170"
      rx="30"
      fill="url(#dishGradient)"
      stroke="url(#dishEdge)"
      stroke-width="4"
    />
    <rect
      x="185"
      y="185"
      width="230"
      height="140"
      rx="24"
      fill="#ffffff"
      opacity="0.4"
    />
    <rect
      x="200"
      y="200"
      width="200"
      height="110"
      rx="18"
      fill="#ffffff"
      opacity="0.2"
    />
  </g>

  <!-- Edge highlight -->
  <path
    d="M205 537 C245 520 355 520 395 537"
    stroke="#3b3b3b"
    stroke-width="4"
    stroke-linecap="round"
    opacity="0.4"
  />
  <text
    x="300"
    y="120"
    text-anchor="middle"
    font-family="Helvetica, Arial, sans-serif"
    font-size="22"
    letter-spacing="4"
    fill="#bbbbbb"
  >
    SHACK STARLINK MOUNTS
  </text>
</svg>
